<?xml version="1.0"?>
<svg xmlns="http://www.w3.org/2000/svg" xmlns:xlink="http://www.w3.org/1999/xlink" id="Gradient" viewBox="0 0 512 512" width="512" height="512"><defs><linearGradient id="linear-gradient" x1="256" y1="480" x2="256" y2="31.506" gradientUnits="userSpaceOnUse"><stop offset="0" stop-color="#27c1e6"/><stop offset="0.5" stop-color="#c275e9"/><stop offset="1" stop-color="#f2515d"/></linearGradient></defs><path d="M24,480H184a8,8,0,0,0,8-8V440a8,8,0,0,0-8-8V240a8,8,0,0,0,8-8V200a8,8,0,0,0-8-8h-.951c-3.268-17.04-14.23-32.748-31.049-44.323V136a24.039,24.039,0,0,0-16-22.624V72a8,8,0,0,0-10.53-7.589l-48,16A8,8,0,0,0,72,88v25.376A24.039,24.039,0,0,0,56,136v11.677C39.181,159.252,28.219,174.96,24.951,192H24a8,8,0,0,0-8,8v32a8,8,0,0,0,8,8V432a8,8,0,0,0-8,8v32A8,8,0,0,0,24,480Zm152-16H32V448H176Zm-8-80H96a8.009,8.009,0,0,1-8-8V280a8.009,8.009,0,0,1,8-8h72ZM32,224V208H176v16ZM120,83.1V112H88V93.766ZM80,128h48a8.009,8.009,0,0,1,8,8v8H72v-8A8.009,8.009,0,0,1,80,128ZM66.339,160h75.322c12.96,8.55,21.708,19.841,24.98,32H41.359C44.631,179.841,53.379,168.55,66.339,160ZM40,240H168v16H96a24.027,24.027,0,0,0-24,24v96a24.027,24.027,0,0,0,24,24h72v32H40ZM184,88h16a8,8,0,0,1,0,16H184a8,8,0,0,1,0-16Zm48,0h16a8,8,0,0,1,0,16H232a8,8,0,0,1,0-16ZM198.173,54.815a8,8,0,0,1-4.329,10.453l-14.782,6.123a8,8,0,0,1-6.124-14.782l14.783-6.123A8,8,0,0,1,198.173,54.815Zm44.346-18.368a8,8,0,0,1-4.33,10.452l-14.781,6.123a8,8,0,0,1-6.123-14.782l14.781-6.123A8,8,0,0,1,242.519,36.447Zm-73.91,88.491a8,8,0,0,1,10.453-4.329l14.782,6.123a8,8,0,1,1-6.123,14.782l-14.783-6.123A8,8,0,0,1,168.609,124.938Zm44.347,18.369a8,8,0,0,1,10.452-4.329l14.781,6.123a8,8,0,1,1-6.123,14.782l-14.781-6.123A8,8,0,0,1,212.956,143.307ZM488,32H296a8,8,0,0,0-8,8V472a8,8,0,0,0,8,8H488a8,8,0,0,0,8-8V40A8,8,0,0,0,488,32Zm-8,48H400V48h80ZM352,416V384h80v32ZM432,96v32H352V96Zm-96,32H304V96h32Zm48,16v32H304V144Zm-32,80V192h80v32Zm-16-32v32H304V192Zm48,48v32H304V240Zm-32,80V288h80v32Zm-16-32v32H304V288Zm48,48v32H304V336Zm-48,48v32H304V384Zm112,0h32v32H448Zm-48-16V336h80v32Zm48-48V288h32v32Zm-48-48V240h80v32Zm48-48V192h32v32Zm-48-48V144h80v32Zm48-48V96h32v32ZM384,48V80H304V48ZM304,432h80v32H304Zm96,32V432h80v32Z" style="fill:url(#linear-gradient)"/></svg>
