<svg id="icons" enable-background="new 0 0 64 64" height="512" viewBox="0 0 64 64" width="512" xmlns="http://www.w3.org/2000/svg"><g><g><path d="m46.506 64h-20.005c-2.757 0-5-2.243-5-5v-31c0-.553.447-1 1-1s1 .447 1 1v31c0 1.654 1.346 3 3 3h20.005c1.654 0 3-1.346 3-3v-31c0-.553.447-1 1-1s1 .447 1 1v31c0 2.757-2.243 5-5 5z"/></g><g><path d="m22.501 29c-.234 0-.469-.081-.658-.247-.416-.364-.458-.996-.095-1.411l7.003-8.004c.365-.418.996-.458 1.411-.095.416.364.458.996.095 1.411l-7.003 8.004c-.198.227-.475.342-.753.342z"/></g><g><path d="m50.506 29c-.278 0-.555-.115-.753-.342l-7.003-8.004c-.363-.415-.321-1.047.095-1.411.414-.363 1.046-.323 1.411.095l7.003 8.004c.363.415.321 1.047-.095 1.411-.189.166-.424.247-.658.247z"/></g><g><path d="m43.503 20.996h-13.999c-.553 0-1-.447-1-1v-9.994c0-.553.447-1 1-1h13.999c.553 0 1 .447 1 1v9.994c0 .553-.447 1-1 1zm-12.999-2h11.999v-7.994h-11.999z"/></g><g><path d="m38.504 11.002h-8c-.553 0-1-.447-1-1v-3c0-.553.447-1 1-1h8c.553 0 1 .447 1 1v3c0 .553-.447 1-1 1zm-7-2h6v-1h-6z"/></g><g><path d="m35.504 8.002c-.104 0-.211-.017-.316-.051-.523-.175-.807-.741-.633-1.266l1.999-6.002c.175-.523.738-.805 1.266-.633.523.175.807.741.633 1.266l-1.999 6.002c-.141.419-.531.684-.95.684z"/></g><g><path d="m33.505 8.002c-.419 0-.809-.265-.948-.684l-2-6.002c-.175-.524.108-1.091.632-1.265.529-.175 1.09.108 1.265.632l2 6.002c.175.524-.108 1.091-.632 1.265-.106.035-.213.052-.317.052z"/></g><g><path d="m37.503 2h-5.998c-.553 0-1-.447-1-1s.447-1 1-1h5.998c.553 0 1 .447 1 1s-.447 1-1 1z"/></g><g><path d="m50.5 17.002h-6.997c-.553 0-1-.447-1-1v-5.002c0-.553.447-1 1-1h6.997c.553 0 1 .447 1 1v5.002c0 .553-.447 1-1 1zm-5.997-2h4.997v-3.002h-4.997z"/></g><g><path d="m57.5 16.002h-7c-.553 0-1-.447-1-1v-3.002c0-.553.447-1 1-1h7c.553 0 1 .447 1 1v3.002c0 .553-.447 1-1 1zm-6-2h5v-1.002h-5z"/></g><g><path d="m29.499 18h-8.999c-.553 0-1-.447-1-1s.447-1 1-1h8.999c.553 0 1 .447 1 1s-.447 1-1 1z"/></g><g><path d="m29.504 13.002h-11.005c-.553 0-1-.447-1-1s.447-1 1-1h11.005c.553 0 1 .447 1 1s-.447 1-1 1z"/></g><g><path d="m6.499 33c-.175 0-.353-.046-.514-.143-.474-.284-.627-.898-.343-1.372l11.999-19.998c.284-.474.897-.628 1.372-.343.474.284.627.898.343 1.372l-11.999 19.999c-.187.312-.518.485-.858.485z"/></g><g><path d="m10.5 33h-4c-.553 0-1-.447-1-1s.447-1 1-1h4c.553 0 1 .447 1 1s-.447 1-1 1z"/></g><g><path d="m10.499 33c-.19 0-.383-.055-.554-.168-.46-.307-.584-.927-.277-1.387l10-15c.306-.46.925-.584 1.387-.277.46.307.584.927.277 1.387l-10 15c-.192.289-.51.445-.833.445z"/></g><g><path d="m36.497 43.998c-3.309 0-6-2.691-6-6 0-3.071 4.736-8.126 5.276-8.692.377-.395 1.07-.395 1.447 0 .54.566 5.276 5.621 5.276 8.692.001 3.309-2.69 6-5.999 6zm0-12.522c-1.778 2.012-4 5.02-4 6.522 0 2.206 1.794 4 4 4s4-1.794 4-4c0-1.505-2.221-4.512-4-6.522z"/></g><g><path d="m42.497 49.008h-12c-.553 0-1-.447-1-1s.447-1 1-1h12c.553 0 1 .447 1 1s-.447 1-1 1z"/></g><g><path d="m42.497 52.004h-12c-.553 0-1-.447-1-1s.447-1 1-1h12c.553 0 1 .447 1 1s-.447 1-1 1z"/></g><g><path d="m38.497 55h-4c-.553 0-1-.447-1-1s.447-1 1-1h4c.553 0 1 .447 1 1s-.447 1-1 1z"/></g></g></svg>