<svg id="icons" enable-background="new 0 0 64 64" height="512" viewBox="0 0 64 64" width="512" xmlns="http://www.w3.org/2000/svg"><g><g><path d="m60.004 50.486c-2.206 0-4-1.794-4-4 0-2.207 1.794-4.002 4-4.002.553 0 1 .447 1 1s-.447 1-1 1c-1.103 0-2 .898-2 2.002 0 1.103.897 2 2 2 .553 0 1 .447 1 1s-.447 1-1 1z"/></g><g><path d="m60.004 44.488c-2.206 0-4-1.795-4-4.002 0-2.206 1.794-4 4-4 .553 0 1 .447 1 1s-.447 1-1 1c-1.103 0-2 .897-2 2 0 1.104.897 2.002 2 2.002.553 0 1 .447 1 1s-.447 1-1 1z"/></g><g><path d="m60.004 38.488c-2.206 0-4-1.794-4-4 0-2.207 1.794-4.002 4-4.002.553 0 1 .447 1 1s-.447 1-1 1c-1.103 0-2 .898-2 2.002 0 1.103.897 2 2 2 .553 0 1 .447 1 1s-.447 1-1 1z"/></g><g><path d="m60.004 32.49c-2.206 0-4-1.795-4-4.002 0-2.206 1.794-4 4-4 .553 0 1 .447 1 1s-.447 1-1 1c-1.103 0-2 .897-2 2 0 1.104.897 2.002 2 2.002.553 0 1 .447 1 1s-.447 1-1 1z"/></g><g><path d="m60.002 32.488c-.553 0-1-.447-1-1s.447-1 1-1c1.103 0 2-.898 2-2.002 0-1.103-.897-2-2-2-.553 0-1-.447-1-1s.447-1 1-1c2.206 0 4 1.794 4 4 0 2.207-1.794 4.002-4 4.002z"/></g><g><path d="m60.002 38.486c-.553 0-1-.447-1-1s.447-1 1-1c1.103 0 2-.897 2-2 0-1.104-.897-2.002-2-2.002-.553 0-1-.447-1-1s.447-1 1-1c2.206 0 4 1.795 4 4.002 0 2.206-1.794 4-4 4z"/></g><g><path d="m60.002 44.486c-.553 0-1-.447-1-1s.447-1 1-1c1.103 0 2-.898 2-2.002 0-1.103-.897-2-2-2-.553 0-1-.447-1-1s.447-1 1-1c2.206 0 4 1.794 4 4 0 2.207-1.794 4.002-4 4.002z"/></g><g><path d="m60.002 50.484c-.553 0-1-.447-1-1s.447-1 1-1c1.103 0 2-.897 2-2 0-1.104-.897-2.002-2-2.002-.553 0-1-.447-1-1s.447-1 1-1c2.206 0 4 1.795 4 4.002 0 2.206-1.794 4-4 4z"/></g><g><path d="m49.994 38.49c-2.207 0-4.002-1.794-4.002-4 0-.553.447-1 1-1s1 .447 1 1c0 1.103.898 2 2.002 2 1.103 0 2-.897 2-2 0-.553.447-1 1-1s1 .447 1 1c0 2.206-1.794 4-4 4z"/></g><g><path d="m52.996 26.486h-10.996c-.553 0-1-.447-1-1s.447-1 1-1h10.996c.553 0 1 .447 1 1s-.447 1-1 1z"/></g><g><path d="m42 50.5c-5.525 0-10.463-3.502-12.286-8.715-.182-.521.093-1.092.614-1.274.522-.181 1.092.094 1.274.614 1.543 4.411 5.721 7.375 10.398 7.375.553 0 1 .447 1 1s-.447 1-1 1z"/></g><g><path d="m30.668 34.5c-.11 0-.223-.019-.332-.057-.521-.184-.795-.755-.611-1.275 1.829-5.196 6.762-8.688 12.275-8.688.553 0 1 .447 1 1s-.447 1-1 1c-4.666 0-8.841 2.954-10.389 7.352-.144.411-.531.668-.943.668z"/></g><g><path d="m52.996 35.49c-.553 0-1-.447-1-1v-9.01c0-.553.447-1 1-1s1 .447 1 1v9.01c0 .553-.447 1-1 1z"/></g><g><path d="m46.992 32.488h-4.992c-.553 0-1-.447-1-1s.447-1 1-1h4.992c.553 0 1 .447 1 1s-.447 1-1 1z"/></g><g><path d="m46.992 35.49c-.553 0-1-.447-1-1v-3.002c0-.553.447-1 1-1s1 .447 1 1v3.002c0 .553-.447 1-1 1z"/></g><g><path d="m32.232 31.5h-6.227c-.553 0-1-.447-1-1s.447-1 1-1h6.227c.553 0 1 .447 1 1s-.447 1-1 1z"/></g><g><path d="m26.006 45.502c-.552 0-1-.447-1-1 0-.552.447-1 1-1l6.242-.002c.552 0 1 .447 1 1 0 .552-.447 1-1 1z"/></g><g><path d="m25.99 47.502c-.553 0-1-.447-1-1v-18.002c0-.553.447-1 1-1s1 .447 1 1v18.002c0 .553-.447 1-1 1z"/></g><g><path d="m25.99 47.502h-8.006c-.553 0-1-.447-1-1s.447-1 1-1h8.006c.553 0 1 .447 1 1s-.447 1-1 1z"/></g><g><path d="m25.99 29.5h-8.006c-.553 0-1-.447-1-1s.447-1 1-1h8.006c.553 0 1 .447 1 1s-.447 1-1 1z"/></g><g><path d="m17.984 49.503c-.553 0-1-.447-1-1v-22.001c0-.553.447-1 1-1s1 .447 1 1v22.001c0 .553-.447 1-1 1z"/></g><g><path d="m17.984 27.502h-16.986c-.553 0-1-.447-1-1s.447-1 1-1h16.986c.553 0 1 .447 1 1s-.447 1-1 1z"/></g><g><path d="m17.984 49.503h-16.986c-.553 0-1-.447-1-1s.447-1 1-1h16.986c.553 0 1 .447 1 1s-.447 1-1 1z"/></g><g><path d="m41.986 52.498c-.553 0-1-.447-1-1v-20.01c0-.553.447-1 1-1s1 .447 1 1v20.01c0 .553-.447 1-1 1z"/></g><g><path d="m44.99 55.502c-2.208 0-4.004-1.796-4.004-4.004 0-.553.447-1 1-1s1 .447 1 1c0 1.104.899 2.004 2.004 2.004.553 0 1 .447 1 1s-.447 1-1 1z"/></g><g><path d="m57.002 55.5c-.553 0-1-.447-1-1s.447-1 1-1c1.103 0 2-.897 2-2 0-.553.447-1 1-1s1 .447 1 1c0 2.206-1.794 4-4 4z"/></g><g><path d="m57.002 55.502h-12.012c-.553 0-1-.447-1-1s.447-1 1-1h12.012c.553 0 1 .447 1 1s-.447 1-1 1z"/></g><g><path d="m60.002 52.5c-.553 0-1-.447-1-1v-2.014c0-.553.447-1 1-1s1 .447 1 1v2.014c0 .553-.447 1-1 1z"/></g><g><path d="m41.999 22.482c-.191 0-.385-.055-.556-.169-.459-.308-.582-.929-.274-1.388l2-2.986c.308-.459.93-.58 1.388-.274.459.308.582.929.274 1.388l-2 2.986c-.193.288-.51.443-.832.443z"/></g><g><path d="m60.005 22.484c-.322 0-.639-.155-.832-.443l-2.002-2.988c-.307-.459-.185-1.08.274-1.388.458-.307 1.079-.186 1.388.274l2.002 2.988c.307.459.185 1.08-.274 1.388-.171.115-.365.169-.556.169z"/></g><g><path d="m59.002 19.496h-16.002c-.553 0-1-.447-1-1s.447-1 1-1h16.002c.553 0 1 .447 1 1s-.447 1-1 1z"/></g><g><path d="m25.984 32.502h-8c-.553 0-1-.447-1-1s.447-1 1-1h8c.553 0 1 .447 1 1s-.447 1-1 1z"/></g><g><path d="m25.984 35.502h-8c-.553 0-1-.447-1-1s.447-1 1-1h8c.553 0 1 .447 1 1s-.447 1-1 1z"/></g><g><path d="m25.984 38.502h-8c-.553 0-1-.447-1-1s.447-1 1-1h8c.553 0 1 .447 1 1s-.447 1-1 1z"/></g><g><path d="m25.984 41.502h-8c-.553 0-1-.447-1-1s.447-1 1-1h8c.553 0 1 .447 1 1s-.447 1-1 1z"/></g><g><path d="m25.984 44.502h-8c-.553 0-1-.447-1-1s.447-1 1-1h8c.553 0 1 .447 1 1s-.447 1-1 1z"/></g><g><path d="m44 19.496c-.553 0-1-.447-1-1 0-2.207 1.795-4.002 4.002-4.002.553 0 1 .447 1 1s-.447 1-1 1c-1.104 0-2.002.898-2.002 2.002 0 .553-.447 1-1 1z"/></g><g><path d="m58.002 19.496c-.553 0-1-.447-1-1 0-1.102-.896-1.998-1.998-1.998-.553 0-1-.447-1-1s.447-1 1-1c2.204 0 3.998 1.794 3.998 3.998 0 .553-.447 1-1 1z"/></g><g><path d="m54.002 16.5h-6c-.553 0-1-.447-1-1v-6.002c0-.553.447-1 1-1h6c.553 0 1 .447 1 1v6.002c0 .553-.447 1-1 1zm-5-2h4v-4.002h-4z"/></g><g><path d="m55.004 16.494h-8.002c-.553 0-1-.447-1-1s.447-1 1-1h8.002c.553 0 1 .447 1 1s-.447 1-1 1z"/></g><g><path d="m42 26.486c-.553 0-1-.447-1-1v-4.004c0-.553.447-1 1-1s1 .447 1 1v4.004c0 .553-.447 1-1 1z"/></g><g><path d="m60.004 26.488c-.553 0-1-.447-1-1v-4.004c0-.553.447-1 1-1s1 .447 1 1v4.004c0 .553-.447 1-1 1z"/></g><g><path d="m54.002 13.5h-1c-.553 0-1-.447-1-1s.447-1 1-1h1c.553 0 1 .447 1 1s-.447 1-1 1z"/></g></g></svg>