<svg id="icons" enable-background="new 0 0 64 64" height="512" viewBox="0 0 64 64" width="512" xmlns="http://www.w3.org/2000/svg"><g><g><g><g><g><path d="m58.015 25.022c-.553 0-1-.447-1-1 0-.552-.448-1-1-1s-1 .448-1 1c0 .553-.447 1-1 1s-1-.447-1-1c0-1.654 1.346-3 3-3s3 1.346 3 3c0 .553-.448 1-1 1z"/></g><g><path d="m58.015 40.022c-.553 0-1-.447-1-1v-15c0-.553.447-1 1-1s1 .447 1 1v15c0 .553-.448 1-1 1z"/></g><g><path d="m54.015 31.022c-.553 0-1-.447-1-1v-10c0-.553.447-1 1-1s1 .447 1 1v10c0 .553-.448 1-1 1z"/></g><g><path d="m54.015 21.022c-.553 0-1-.447-1-1 0-.552-.448-1-1-1s-1 .448-1 1c0 .553-.447 1-1 1s-1-.447-1-1c0-1.654 1.346-3 3-3s3 1.346 3 3c0 .553-.448 1-1 1z"/></g><g><path d="m42.015 34.022c-.553 0-1-.447-1-1v-13c0-.553.447-1 1-1s1 .447 1 1v13c0 .553-.448 1-1 1z"/></g><g><path d="m46.015 21.022c-.553 0-1-.447-1-1 0-.552-.448-1-1-1s-1 .448-1 1c0 .553-.447 1-1 1s-1-.447-1-1c0-1.654 1.346-3 3-3s3 1.346 3 3c0 .553-.448 1-1 1z"/></g><g><path d="m50.015 31.022c-.553 0-1-.447-1-1v-13c0-.553.447-1 1-1s1 .447 1 1v13c0 .553-.448 1-1 1z"/></g><g><path d="m50.015 18.022c-.553 0-1-.447-1-1 0-.552-.448-1-1-1s-1 .448-1 1c0 .553-.447 1-1 1s-1-.447-1-1c0-1.654 1.346-3 3-3s3 1.346 3 3c0 .553-.448 1-1 1z"/></g><g><path d="m46.015 31.022c-.553 0-1-.447-1-1v-13c0-.553.447-1 1-1s1 .447 1 1v13c0 .553-.448 1-1 1z"/></g><g><path d="m54.016 46.952c-.346 0-.681-.179-.866-.499-.277-.478-.113-1.09.364-1.366 2.159-1.25 3.501-3.574 3.501-6.064 0-.553.447-1 1-1s1 .447 1 1c0 3.202-1.724 6.188-4.499 7.795-.159.091-.33.134-.5.134z"/></g><g><path d="m46.006 46.823c-.184 0-.37-.051-.537-.157-1.259-.804-2.394-1.939-3.372-3.377-.312-.456-.193-1.078.264-1.389.455-.314 1.078-.192 1.389.264.826 1.212 1.767 2.159 2.796 2.816.466.297.602.915.305 1.381-.192.299-.515.462-.845.462z"/></g><g><path d="m36.539 34.323c-.319 0-.634-.153-.827-.438-.979-1.438-.933-3.046.119-4.098 1.149-1.15 3.002-1.161 4.218-.023.403.377.425 1.01.048 1.413-.378.404-1.012.424-1.413.048-.424-.396-1.056-.406-1.438-.023-.533.533.006 1.392.119 1.559.312.456.193 1.078-.264 1.389-.172.117-.369.173-.562.173z"/></g><g><path d="m42.924 43.727c-.32 0-.635-.153-.828-.438l-6.385-9.403c-.311-.457-.191-1.078.266-1.389.456-.312 1.079-.191 1.389.266l6.385 9.403c.311.457.191 1.078-.266 1.389-.172.116-.368.172-.561.172z"/></g><g><path d="m42.015 34.022c-.248 0-.497-.092-.69-.276l-2.648-2.527c-.399-.382-.414-1.015-.033-1.414s1.016-.413 1.414-.033l2.648 2.527c.399.382.414 1.015.033 1.414-.197.206-.461.309-.724.309z"/></g></g></g><g><g><g><path d="m9.985 25.022c-.553 0-1-.447-1-1 0-.552-.448-1-1-1s-1 .448-1 1c0 .553-.447 1-1 1s-1-.447-1-1c0-1.654 1.346-3 3-3s3 1.346 3 3c0 .553-.447 1-1 1z"/></g><g><path d="m5.985 40.022c-.553 0-1-.447-1-1v-15c0-.553.447-1 1-1s1 .447 1 1v15c0 .553-.447 1-1 1z"/></g><g><path d="m9.985 31.022c-.553 0-1-.447-1-1v-10c0-.553.447-1 1-1s1 .447 1 1v10c0 .553-.447 1-1 1z"/></g><g><path d="m13.985 21.022c-.553 0-1-.447-1-1 0-.552-.448-1-1-1s-1 .448-1 1c0 .553-.447 1-1 1s-1-.447-1-1c0-1.654 1.346-3 3-3s3 1.346 3 3c0 .553-.447 1-1 1z"/></g><g><path d="m21.985 34.022c-.553 0-1-.447-1-1v-13c0-.553.447-1 1-1s1 .447 1 1v13c0 .553-.447 1-1 1z"/></g><g><path d="m21.985 21.022c-.553 0-1-.447-1-1 0-.552-.448-1-1-1s-1 .448-1 1c0 .553-.447 1-1 1s-1-.447-1-1c0-1.654 1.346-3 3-3s3 1.346 3 3c0 .553-.447 1-1 1z"/></g><g><path d="m13.985 31.022c-.553 0-1-.447-1-1v-13c0-.553.447-1 1-1s1 .447 1 1v13c0 .553-.447 1-1 1z"/></g><g><path d="m17.985 18.022c-.553 0-1-.447-1-1 0-.552-.448-1-1-1s-1 .448-1 1c0 .553-.447 1-1 1s-1-.447-1-1c0-1.654 1.346-3 3-3s3 1.346 3 3c0 .553-.447 1-1 1z"/></g><g><path d="m17.985 31.022c-.553 0-1-.447-1-1v-13c0-.553.447-1 1-1s1 .447 1 1v13c0 .553-.447 1-1 1z"/></g><g><path d="m9.984 46.952c-.17 0-.342-.043-.5-.135-2.775-1.606-4.499-4.593-4.499-7.795 0-.553.447-1 1-1s1 .447 1 1c0 2.49 1.342 4.814 3.501 6.064.478.276.642.889.364 1.366-.185.321-.52.5-.866.5z"/></g><g><path d="m17.994 46.823c-.33 0-.653-.163-.844-.462-.297-.466-.161-1.084.305-1.381 1.029-.657 1.97-1.604 2.796-2.816.311-.456.933-.577 1.389-.264.457.311.575.933.264 1.389-.979 1.438-2.113 2.573-3.372 3.377-.168.106-.354.157-.538.157z"/></g><g><path d="m27.461 34.323c-.193 0-.39-.057-.562-.174-.457-.311-.575-.933-.264-1.389.113-.167.652-1.025.119-1.559-.382-.383-1.014-.372-1.438.023-.4.377-1.034.357-1.413-.048-.377-.403-.355-1.036.048-1.413 1.216-1.138 3.066-1.127 4.218.023 1.052 1.052 1.099 2.66.119 4.098-.193.286-.508.439-.827.439z"/></g><g><path d="m21.076 43.727c-.193 0-.389-.056-.561-.173-.457-.311-.576-.932-.266-1.389l6.385-9.403c.311-.457.933-.576 1.389-.266.457.311.576.932.266 1.389l-6.385 9.403c-.193.285-.508.439-.828.439z"/></g><g><path d="m21.985 34.022c-.264 0-.527-.104-.724-.31-.381-.399-.366-1.032.033-1.414l2.648-2.527c.399-.38 1.033-.366 1.414.033s.366 1.032-.033 1.414l-2.648 2.527c-.193.186-.442.277-.69.277z"/></g></g></g><g><path d="m20.998 53.016h-14c-.553 0-1-.447-1-1v-4.001c0-.553.447-1 1-1h14c.553 0 1 .447 1 1v4.001c0 .552-.447 1-1 1zm-13-2h12v-2.001h-12z"/></g><g><path d="m9.985 49.015c-.553 0-1-.447-1-1v-2.063c0-.553.447-1 1-1s1 .447 1 1v2.063c0 .552-.447 1-1 1z"/></g><g><path d="m17.993 49.015c-.553 0-1-.447-1-1v-2.191c0-.553.447-1 1-1s1 .447 1 1v2.191c0 .552-.447 1-1 1z"/></g><g><path d="m57.002 53.016h-14c-.553 0-1-.447-1-1v-4.001c0-.553.447-1 1-1h14c.553 0 1 .447 1 1v4.001c0 .552-.447 1-1 1zm-13-2h12v-2.001h-12z"/></g><g><path d="m54.015 49.015c-.553 0-1-.447-1-1v-2.063c0-.553.447-1 1-1s1 .447 1 1v2.063c0 .552-.448 1-1 1z"/></g><g><path d="m46.007 49.015c-.553 0-1-.447-1-1v-2.191c0-.553.447-1 1-1s1 .447 1 1v2.191c0 .552-.447 1-1 1z"/></g><g><path d="m30.003 53.015c-1.654 0-3-1.346-3-3s1.346-3 3-3c.553 0 1 .447 1 1s-.447 1-1 1c-.552 0-1 .448-1 1s.448 1 1 1c.553 0 1 .447 1 1s-.447 1-1 1z"/></g><g><path d="m42.002 53.015c-1.654 0-3-1.346-3-3s1.346-3 3-3c.553 0 1 .447 1 1s-.447 1-1 1c-.552 0-1 .448-1 1s.448 1 1 1c.553 0 1 .447 1 1s-.447 1-1 1z"/></g><g><path d="m34.004 53.015c-.553 0-1-.447-1-1s.447-1 1-1c.552 0 1-.448 1-1s-.448-1-1-1c-.553 0-1-.447-1-1s.447-1 1-1c1.654 0 3 1.346 3 3s-1.346 3-3 3z"/></g><g><path d="m21.999 53.015c-.553 0-1-.447-1-1s.447-1 1-1c.552 0 1-.448 1-1s-.448-1-1-1c-.553 0-1-.447-1-1s.447-1 1-1c1.654 0 3 1.346 3 3s-1.346 3-3 3z"/></g><g><path d="m29.004 51.015h-5.005c-.553 0-1-.447-1-1s.447-1 1-1h5.005c.553 0 1 .447 1 1s-.447 1-1 1z"/></g><g><path d="m39.999 51.015h-4.996c-.553 0-1-.447-1-1s.447-1 1-1h4.996c.553 0 1 .447 1 1s-.447 1-1 1z"/></g><g><path d="m21.999 49.015h-1.001c-.553 0-1-.447-1-1s.447-1 1-1h1.001c.553 0 1 .447 1 1s-.447 1-1 1z"/></g><g><path d="m43.003 49.015h-1.001c-.553 0-1-.447-1-1s.447-1 1-1h1.001c.553 0 1 .447 1 1s-.447 1-1 1z"/></g><g><path d="m43.003 53.015h-1.001c-.553 0-1-.447-1-1s.447-1 1-1h1.001c.553 0 1 .447 1 1s-.447 1-1 1z"/></g><g><path d="m21.999 53.016h-1.001c-.553 0-1-.447-1-1s.447-1 1-1h1.001c.553 0 1 .447 1 1s-.447 1-1 1z"/></g><g><g><path d="m19.999 56.019h-12.002c-.553 0-1-.447-1-1s.447-1 1-1h12.002c.553 0 1 .447 1 1s-.447 1-1 1z"/></g><g><path d="m18.998 56.019c-.553 0-1-.447-1-1v-3.003c0-.553.447-1 1-1s1 .447 1 1v3.003c0 .552-.447 1-1 1z"/></g><g><path d="m8.998 56.019c-.553 0-1-.447-1-1v-3.003c0-.553.447-1 1-1s1 .447 1 1v3.003c0 .552-.447 1-1 1z"/></g><g><path d="m7.997 64.002c-.553 0-1-.447-1-1v-7.983c0-.553.447-1 1-1s1 .447 1 1v7.983c0 .553-.447 1-1 1z"/></g><g><path d="m19.999 64.002c-.553 0-1-.447-1-1v-7.983c0-.553.447-1 1-1s1 .447 1 1v7.983c0 .553-.447 1-1 1z"/></g></g><g><g><path d="m56.002 56.019h-12.002c-.553 0-1-.447-1-1s.447-1 1-1h12.002c.553 0 1 .447 1 1s-.447 1-1 1z"/></g><g><path d="m45.002 56.019c-.553 0-1-.447-1-1v-3.003c0-.553.447-1 1-1s1 .447 1 1v3.003c0 .552-.447 1-1 1z"/></g><g><path d="m55.002 56.019c-.553 0-1-.447-1-1v-3.003c0-.553.447-1 1-1s1 .447 1 1v3.003c0 .552-.447 1-1 1z"/></g><g><path d="m44.014 64.002c-.553 0-1-.447-1-1v-7.983c0-.553.447-1 1-1s1 .447 1 1v7.983c0 .553-.448 1-1 1z"/></g><g><path d="m56.016 64.002c-.553 0-1-.447-1-1v-7.983c0-.553.447-1 1-1s1 .447 1 1v7.983c0 .553-.448 1-1 1z"/></g></g></g><g><g><path d="m26.019 25.997c-.553 0-1-.447-1-1v-14.996c0-.553.447-1 1-1s1 .447 1 1v14.996c0 .553-.448 1-1 1z"/></g><g><path d="m38.017 25.997c-.553 0-1-.447-1-1v-14.996c0-.553.447-1 1-1s1 .447 1 1v14.996c0 .553-.448 1-1 1z"/></g><g><path d="m26.018 11.001c-.19 0-.383-.055-.554-.168-.459-.306-.584-.927-.277-1.387l1.999-3.001c.306-.459.925-.584 1.387-.277.459.306.584.927.277 1.387l-1.999 3.001c-.193.289-.51.445-.833.445z"/></g><g><path d="m38.018 11.001c-.323 0-.641-.156-.833-.445l-1.999-3.001c-.307-.46-.182-1.081.277-1.387.461-.307 1.08-.182 1.387.277l1.999 3.001c.307.46.182 1.081-.277 1.387-.172.113-.364.168-.554.168z"/></g><g><path d="m37.018 8h-10c-.553 0-1-.447-1-1s.447-1 1-1h10c.553 0 1 .447 1 1s-.448 1-1 1z"/></g><g><path d="m28.018 8c-.553 0-1-.447-1-1 0-2.206 1.794-4 4-4 .553 0 1 .447 1 1s-.447 1-1 1c-1.103 0-2 .897-2 2 0 .553-.448 1-1 1z"/></g><g><path d="m36.018 8c-.553 0-1-.447-1-1 0-1.103-.897-2-2-2-.553 0-1-.447-1-1s.447-1 1-1c2.206 0 4 1.794 4 4 0 .553-.448 1-1 1z"/></g><g><path d="m33.018 5h-2c-.553 0-1-.447-1-1s.447-1 1-1h2c.553 0 1 .447 1 1s-.448 1-1 1z"/></g><g><path d="m32.018 5c-.553 0-1-.447-1-1v-.999c0-.553.447-1 1-1s1 .447 1 1v.999c0 .553-.448 1-1 1z"/></g><g><path d="m28.014 27.992c-1.651 0-2.995-1.344-2.995-2.995 0-.553.447-1 1-1s1 .447 1 1c0 .549.446.995.995.995.553 0 1 .447 1 1s-.448 1-1 1z"/></g><g><path d="m36.014 28c-.553 0-1-.447-1-1s.447-1 1-1 1.003-.45 1.003-1.003.447-1 1-1 1 .447 1 1c0 1.656-1.347 3.003-3.003 3.003z"/></g><g><path d="m36.014 27.992h-8c-.553 0-1-.447-1-1s.447-1 1-1h8c.553 0 1 .447 1 1s-.448 1-1 1z"/></g><g><path d="m32.008 21.997c-.553 0-1-.447-1-1v-8c0-.553.447-1 1-1s1 .447 1 1v8c0 .553-.447 1-1 1z"/></g><g><path d="m36.008 8h-7.99c-.553 0-1-.447-1-1v-6.002c0-.553.447-1 1-1h7.99c.553 0 1 .447 1 1v6.002c0 .553-.447 1-1 1zm-6.99-2h5.99v-4.002h-5.99z"/></g></g><g><path d="m34.004 49.015h-4.001c-.553 0-1-.447-1-1s.447-1 1-1h4.001c.553 0 1 .447 1 1s-.447 1-1 1z"/></g><g><path d="m34.004 53.015h-4.001c-.553 0-1-.447-1-1s.447-1 1-1h4.001c.553 0 1 .447 1 1s-.447 1-1 1z"/></g></g></svg>